<mxfile host="app.diagrams.net" modified="2020-05-06T16:44:45.643Z" agent="5.0 (Windows NT 10.0; Win64; x64) AppleWebKit/537.36 (KHTML, like Gecko) Chrome/81.0.4044.129 Safari/537.36" etag="e9NHhNZTVpfUwYfYG7ey" version="13.0.8" type="github">
  <diagram id="Lk74XoYKnYpU-4dZqS-C" name="Page-1">
    <mxGraphModel dx="782" dy="469" grid="1" gridSize="10" guides="1" tooltips="1" connect="1" arrows="1" fold="1" page="1" pageScale="1" pageWidth="827" pageHeight="1169" math="0" shadow="0">
      <root>
        <mxCell id="0" />
        <mxCell id="1" parent="0" />
        <mxCell id="1xcK4z-7fmxsR_L0OcB_-3" style="edgeStyle=orthogonalEdgeStyle;rounded=0;orthogonalLoop=1;jettySize=auto;html=1;exitX=0.5;exitY=1;exitDx=0;exitDy=0;" parent="1" edge="1">
          <mxGeometry relative="1" as="geometry">
            <mxPoint x="410" y="100" as="sourcePoint" />
            <mxPoint x="410" y="100" as="targetPoint" />
          </mxGeometry>
        </mxCell>
        <mxCell id="1xcK4z-7fmxsR_L0OcB_-4" value="Go to Clients&#39; List" style="rounded=1;whiteSpace=wrap;html=1;arcSize=40;fontColor=#000000;fillColor=#ffffc0;strokeColor=#ff0000;" parent="1" vertex="1">
          <mxGeometry x="339" y="80" width="120" height="40" as="geometry" />
        </mxCell>
        <mxCell id="1xcK4z-7fmxsR_L0OcB_-5" value="" style="edgeStyle=orthogonalEdgeStyle;html=1;verticalAlign=bottom;endArrow=open;endSize=8;strokeColor=#ff0000;entryX=0.5;entryY=0;entryDx=0;entryDy=0;" parent="1" source="1xcK4z-7fmxsR_L0OcB_-4" edge="1">
          <mxGeometry relative="1" as="geometry">
            <mxPoint x="399" y="170" as="targetPoint" />
            <Array as="points" />
          </mxGeometry>
        </mxCell>
        <mxCell id="1xcK4z-7fmxsR_L0OcB_-12" value="" style="edgeStyle=orthogonalEdgeStyle;rounded=0;orthogonalLoop=1;jettySize=auto;html=1;entryX=0.5;entryY=0;entryDx=0;entryDy=0;" parent="1" source="1xcK4z-7fmxsR_L0OcB_-6" target="1xcK4z-7fmxsR_L0OcB_-4" edge="1">
          <mxGeometry relative="1" as="geometry">
            <mxPoint x="399" y="90" as="targetPoint" />
          </mxGeometry>
        </mxCell>
        <mxCell id="1xcK4z-7fmxsR_L0OcB_-6" value="" style="ellipse;html=1;shape=startState;fillColor=#000000;strokeColor=#ff0000;" parent="1" vertex="1">
          <mxGeometry x="384" width="30" height="30" as="geometry" />
        </mxCell>
        <mxCell id="RRGvB8VW4mvUHMfBtY_i-10" value="" style="edgeStyle=orthogonalEdgeStyle;rounded=0;orthogonalLoop=1;jettySize=auto;html=1;entryX=0;entryY=0.5;entryDx=0;entryDy=0;" parent="1" source="1xcK4z-7fmxsR_L0OcB_-39" edge="1">
          <mxGeometry relative="1" as="geometry">
            <mxPoint x="620" y="203" as="targetPoint" />
          </mxGeometry>
        </mxCell>
        <mxCell id="1xcK4z-7fmxsR_L0OcB_-39" value="Deactivate a Client" style="rhombus;whiteSpace=wrap;html=1;fillColor=#ffffc0;strokeColor=#ff0000;" parent="1" vertex="1">
          <mxGeometry x="320" y="170" width="149" height="66" as="geometry" />
        </mxCell>
        <mxCell id="1xcK4z-7fmxsR_L0OcB_-41" value="Yes" style="edgeStyle=orthogonalEdgeStyle;html=1;align=left;verticalAlign=top;endArrow=open;endSize=8;strokeColor=#ff0000;entryX=0.5;entryY=0;entryDx=0;entryDy=0;" parent="1" source="1xcK4z-7fmxsR_L0OcB_-39" edge="1">
          <mxGeometry x="-1" relative="1" as="geometry">
            <mxPoint x="394.5" y="290" as="targetPoint" />
          </mxGeometry>
        </mxCell>
        <mxCell id="1xcK4z-7fmxsR_L0OcB_-53" value="" style="ellipse;html=1;shape=endState;fillColor=#000000;strokeColor=#ff0000;" parent="1" vertex="1">
          <mxGeometry x="520" y="740" width="30" height="30" as="geometry" />
        </mxCell>
        <mxCell id="9wQjwLWXGUns_v5oUAE9-2" style="edgeStyle=orthogonalEdgeStyle;rounded=0;orthogonalLoop=1;jettySize=auto;html=1;exitX=1;exitY=0.5;exitDx=0;exitDy=0;entryX=1;entryY=0;entryDx=0;entryDy=0;" parent="1" source="1xcK4z-7fmxsR_L0OcB_-53" target="1xcK4z-7fmxsR_L0OcB_-53" edge="1">
          <mxGeometry relative="1" as="geometry" />
        </mxCell>
        <mxCell id="RRGvB8VW4mvUHMfBtY_i-12" value="No" style="text;html=1;align=center;verticalAlign=middle;resizable=0;points=[];autosize=1;" parent="1" vertex="1">
          <mxGeometry x="479" y="180" width="30" height="20" as="geometry" />
        </mxCell>
        <mxCell id="XzFYtpa7LjvcY1_RKWXd-4" value="Back to Clients&#39;List" style="rounded=1;whiteSpace=wrap;html=1;arcSize=40;fontColor=#000000;fillColor=#ffffc0;strokeColor=#ff0000;" parent="1" vertex="1">
          <mxGeometry x="620" y="183" width="120" height="40" as="geometry" />
        </mxCell>
        <mxCell id="3h3rmmsthHZLT0rmrNhb-4" value="" style="shape=line;html=1;strokeWidth=6;strokeColor=#ff0000;" parent="1" vertex="1">
          <mxGeometry x="292.25" y="390" width="200" height="10" as="geometry" />
        </mxCell>
        <mxCell id="3h3rmmsthHZLT0rmrNhb-7" value="Keep Client Deactivated" style="rounded=1;whiteSpace=wrap;html=1;arcSize=40;fontColor=#000000;fillColor=#ffffc0;strokeColor=#ff0000;" parent="1" vertex="1">
          <mxGeometry x="260" y="440" width="120" height="40" as="geometry" />
        </mxCell>
        <mxCell id="3h3rmmsthHZLT0rmrNhb-9" value="Activate Client" style="rounded=1;whiteSpace=wrap;html=1;arcSize=40;fontColor=#000000;fillColor=#ffffc0;strokeColor=#ff0000;" parent="1" vertex="1">
          <mxGeometry x="389" y="440" width="120" height="40" as="geometry" />
        </mxCell>
        <mxCell id="3h3rmmsthHZLT0rmrNhb-10" value="" style="edgeStyle=orthogonalEdgeStyle;html=1;verticalAlign=bottom;endArrow=open;endSize=8;strokeColor=#ff0000;entryX=0.5;entryY=0;entryDx=0;entryDy=0;" parent="1" source="3h3rmmsthHZLT0rmrNhb-9" target="3h3rmmsthHZLT0rmrNhb-19" edge="1">
          <mxGeometry relative="1" as="geometry">
            <mxPoint x="550" y="520" as="targetPoint" />
            <Array as="points">
              <mxPoint x="449" y="490" />
              <mxPoint x="519" y="490" />
            </Array>
          </mxGeometry>
        </mxCell>
        <mxCell id="3h3rmmsthHZLT0rmrNhb-12" value="" style="edgeStyle=orthogonalEdgeStyle;html=1;verticalAlign=bottom;endArrow=open;endSize=8;strokeColor=#ff0000;entryX=0.162;entryY=0.333;entryDx=0;entryDy=0;entryPerimeter=0;exitX=0.5;exitY=1;exitDx=0;exitDy=0;" parent="1" source="3h3rmmsthHZLT0rmrNhb-7" target="3h3rmmsthHZLT0rmrNhb-21" edge="1">
          <mxGeometry relative="1" as="geometry">
            <mxPoint x="470" y="650" as="targetPoint" />
            <mxPoint x="320" y="490" as="sourcePoint" />
            <Array as="points">
              <mxPoint x="320" y="650" />
              <mxPoint x="467" y="650" />
            </Array>
          </mxGeometry>
        </mxCell>
        <mxCell id="3h3rmmsthHZLT0rmrNhb-13" value="Client can no longer login into his/her account" style="rounded=1;whiteSpace=wrap;html=1;arcSize=40;fontColor=#000000;fillColor=#ffffc0;strokeColor=#ff0000;" parent="1" vertex="1">
          <mxGeometry x="330" y="285" width="124.5" height="45" as="geometry" />
        </mxCell>
        <mxCell id="3h3rmmsthHZLT0rmrNhb-14" value="" style="edgeStyle=orthogonalEdgeStyle;html=1;verticalAlign=bottom;endArrow=open;endSize=8;strokeColor=#ff0000;" parent="1" source="3h3rmmsthHZLT0rmrNhb-13" edge="1">
          <mxGeometry relative="1" as="geometry">
            <mxPoint x="392" y="397" as="targetPoint" />
          </mxGeometry>
        </mxCell>
        <mxCell id="3h3rmmsthHZLT0rmrNhb-17" value="" style="edgeStyle=orthogonalEdgeStyle;html=1;verticalAlign=bottom;endArrow=open;endSize=8;strokeColor=#ff0000;entryX=0.578;entryY=-0.05;entryDx=0;entryDy=0;entryPerimeter=0;" parent="1" source="3h3rmmsthHZLT0rmrNhb-4" target="3h3rmmsthHZLT0rmrNhb-7" edge="1">
          <mxGeometry relative="1" as="geometry">
            <mxPoint x="402" y="407" as="targetPoint" />
            <mxPoint x="329" y="410" as="sourcePoint" />
            <Array as="points">
              <mxPoint x="329" y="395" />
              <mxPoint x="329" y="395" />
            </Array>
          </mxGeometry>
        </mxCell>
        <mxCell id="3h3rmmsthHZLT0rmrNhb-18" value="" style="edgeStyle=orthogonalEdgeStyle;html=1;verticalAlign=bottom;endArrow=open;endSize=8;strokeColor=#ff0000;exitX=0.785;exitY=0.8;exitDx=0;exitDy=0;exitPerimeter=0;" parent="1" source="3h3rmmsthHZLT0rmrNhb-4" edge="1">
          <mxGeometry relative="1" as="geometry">
            <mxPoint x="449" y="439" as="targetPoint" />
            <mxPoint x="449" y="405" as="sourcePoint" />
            <Array as="points" />
          </mxGeometry>
        </mxCell>
        <mxCell id="3h3rmmsthHZLT0rmrNhb-19" value="Client can access his/her Account again" style="rounded=1;whiteSpace=wrap;html=1;arcSize=40;fontColor=#000000;fillColor=#ffffc0;strokeColor=#ff0000;" parent="1" vertex="1">
          <mxGeometry x="459" y="540" width="120" height="40" as="geometry" />
        </mxCell>
        <mxCell id="3h3rmmsthHZLT0rmrNhb-20" value="" style="edgeStyle=orthogonalEdgeStyle;html=1;verticalAlign=bottom;endArrow=open;endSize=8;strokeColor=#ff0000;exitX=0.5;exitY=1;exitDx=0;exitDy=0;" parent="1" source="3h3rmmsthHZLT0rmrNhb-19" target="3h3rmmsthHZLT0rmrNhb-21" edge="1">
          <mxGeometry relative="1" as="geometry">
            <mxPoint x="520" y="650" as="targetPoint" />
            <mxPoint x="610" y="560" as="sourcePoint" />
            <Array as="points">
              <mxPoint x="520" y="580" />
            </Array>
          </mxGeometry>
        </mxCell>
        <mxCell id="3h3rmmsthHZLT0rmrNhb-21" value="" style="shape=line;html=1;strokeWidth=6;strokeColor=#ff0000;" parent="1" vertex="1">
          <mxGeometry x="435" y="660" width="200" height="10" as="geometry" />
        </mxCell>
        <mxCell id="3h3rmmsthHZLT0rmrNhb-22" value="" style="edgeStyle=orthogonalEdgeStyle;html=1;verticalAlign=bottom;endArrow=open;endSize=8;strokeColor=#ff0000;" parent="1" source="3h3rmmsthHZLT0rmrNhb-21" edge="1">
          <mxGeometry relative="1" as="geometry">
            <mxPoint x="535" y="740" as="targetPoint" />
          </mxGeometry>
        </mxCell>
        <mxCell id="PVWj1V_ange5pjJXj4VU-1" value="&lt;span style=&quot;color: rgba(0 , 0 , 0 , 0) ; font-family: monospace ; font-size: 0px&quot;&gt;%3CmxGraphModel%3E%3Croot%3E%3CmxCell%20id%3D%220%22%2F%3E%3CmxCell%20id%3D%221%22%20parent%3D%220%22%2F%3E%3CmxCell%20id%3D%222%22%20value%3D%22%22%20style%3D%22edgeStyle%3DorthogonalEdgeStyle%3Bhtml%3D1%3BverticalAlign%3Dbottom%3BendArrow%3Dopen%3BendSize%3D8%3BstrokeColor%3D%23ff0000%3B%22%20edge%3D%221%22%20parent%3D%221%22%3E%3CmxGeometry%20relative%3D%221%22%20as%3D%22geometry%22%3E%3CmxPoint%20x%3D%22535%22%20y%3D%22740%22%20as%3D%22targetPoint%22%2F%3E%3CmxPoint%20x%3D%22535%22%20y%3D%22670%22%20as%3D%22sourcePoint%22%2F%3E%3C%2FmxGeometry%3E%3C%2FmxCell%3E%3C%2Froot%3E%3C%2FmxGraphModel%3E&lt;/span&gt;" style="text;html=1;align=center;verticalAlign=middle;resizable=0;points=[];autosize=1;" parent="1" vertex="1">
          <mxGeometry x="691" y="251" width="20" height="20" as="geometry" />
        </mxCell>
        <mxCell id="PVWj1V_ange5pjJXj4VU-2" value="" style="edgeStyle=orthogonalEdgeStyle;html=1;verticalAlign=bottom;endArrow=open;endSize=8;strokeColor=#ff0000;exitX=0.5;exitY=1;exitDx=0;exitDy=0;" parent="1" edge="1">
          <mxGeometry relative="1" as="geometry">
            <mxPoint x="600" y="660" as="targetPoint" />
            <mxPoint x="664.5" y="223" as="sourcePoint" />
            <Array as="points">
              <mxPoint x="666" y="223" />
              <mxPoint x="666" y="640" />
            </Array>
          </mxGeometry>
        </mxCell>
      </root>
    </mxGraphModel>
  </diagram>
</mxfile>
